<mxfile host="app.diagrams.net" agent="Mozilla/5.0 (Windows NT 10.0; Win64; x64) AppleWebKit/537.36 (KHTML, like Gecko) Chrome/128.0.0.0 Safari/537.36" version="24.7.10">
  <diagram name="Página-1" id="7RrUhi6TTcGHg3fKtgwz">
    <mxGraphModel dx="2068" dy="840" grid="1" gridSize="10" guides="1" tooltips="1" connect="1" arrows="1" fold="1" page="1" pageScale="1" pageWidth="827" pageHeight="1169" math="0" shadow="0">
      <root>
        <mxCell id="0" />
        <mxCell id="1" parent="0" />
        <mxCell id="7m76SYJ3nL4n5d4HYqNV-1" value="&amp;nbsp;Usuário&amp;nbsp;" style="rounded=0;whiteSpace=wrap;html=1;" vertex="1" parent="1">
          <mxGeometry x="80" y="310" width="160" height="80" as="geometry" />
        </mxCell>
        <mxCell id="7m76SYJ3nL4n5d4HYqNV-2" value="Adicionar Tarefa" style="rounded=0;whiteSpace=wrap;html=1;" vertex="1" parent="1">
          <mxGeometry x="320" y="300" width="160" height="80" as="geometry" />
        </mxCell>
        <mxCell id="7m76SYJ3nL4n5d4HYqNV-3" value="Remover Tarefa&amp;nbsp;" style="rounded=0;whiteSpace=wrap;html=1;" vertex="1" parent="1">
          <mxGeometry x="320" y="410" width="160" height="80" as="geometry" />
        </mxCell>
        <mxCell id="7m76SYJ3nL4n5d4HYqNV-4" value="Atualizar Tarefa" style="rounded=0;whiteSpace=wrap;html=1;" vertex="1" parent="1">
          <mxGeometry x="320" y="530" width="160" height="80" as="geometry" />
        </mxCell>
        <mxCell id="7m76SYJ3nL4n5d4HYqNV-5" value="Listar Tarefas&amp;nbsp;" style="rounded=0;whiteSpace=wrap;html=1;" vertex="1" parent="1">
          <mxGeometry x="320" y="660" width="160" height="80" as="geometry" />
        </mxCell>
        <mxCell id="7m76SYJ3nL4n5d4HYqNV-6" value="Cadastrar Usuário" style="rounded=0;whiteSpace=wrap;html=1;" vertex="1" parent="1">
          <mxGeometry x="320" y="790" width="160" height="80" as="geometry" />
        </mxCell>
        <mxCell id="7m76SYJ3nL4n5d4HYqNV-7" value="Escolher Grupo&amp;nbsp;" style="rounded=0;whiteSpace=wrap;html=1;" vertex="1" parent="1">
          <mxGeometry x="320" y="920" width="160" height="80" as="geometry" />
        </mxCell>
        <mxCell id="7m76SYJ3nL4n5d4HYqNV-8" value="&amp;nbsp;Sistema To-Do List" style="rounded=0;whiteSpace=wrap;html=1;" vertex="1" parent="1">
          <mxGeometry x="560" y="310" width="160" height="80" as="geometry" />
        </mxCell>
        <mxCell id="7m76SYJ3nL4n5d4HYqNV-9" value=" Enviar Mensagem" style="rounded=0;whiteSpace=wrap;html=1;" vertex="1" parent="1">
          <mxGeometry x="320" y="1050" width="160" height="80" as="geometry" />
        </mxCell>
        <mxCell id="7m76SYJ3nL4n5d4HYqNV-11" value=" Enviar Mensagem" style="rounded=0;whiteSpace=wrap;html=1;" vertex="1" parent="1">
          <mxGeometry x="320" y="1169" width="160" height="80" as="geometry" />
        </mxCell>
        <mxCell id="7m76SYJ3nL4n5d4HYqNV-12" value="" style="endArrow=none;dashed=1;html=1;rounded=0;entryX=0.5;entryY=1;entryDx=0;entryDy=0;" edge="1" parent="1" target="7m76SYJ3nL4n5d4HYqNV-1">
          <mxGeometry width="50" height="50" relative="1" as="geometry">
            <mxPoint x="160" y="1320" as="sourcePoint" />
            <mxPoint x="185" y="160" as="targetPoint" />
          </mxGeometry>
        </mxCell>
        <mxCell id="7m76SYJ3nL4n5d4HYqNV-13" value="" style="endArrow=none;dashed=1;html=1;rounded=0;" edge="1" parent="1">
          <mxGeometry width="50" height="50" relative="1" as="geometry">
            <mxPoint x="160" y="1320" as="sourcePoint" />
            <mxPoint x="640" y="1320" as="targetPoint" />
          </mxGeometry>
        </mxCell>
        <mxCell id="7m76SYJ3nL4n5d4HYqNV-14" value="" style="endArrow=none;dashed=1;html=1;rounded=0;exitX=0.5;exitY=1;exitDx=0;exitDy=0;" edge="1" parent="1" source="7m76SYJ3nL4n5d4HYqNV-8">
          <mxGeometry width="50" height="50" relative="1" as="geometry">
            <mxPoint x="390" y="1440" as="sourcePoint" />
            <mxPoint x="640" y="1320" as="targetPoint" />
            <Array as="points" />
          </mxGeometry>
        </mxCell>
        <mxCell id="7m76SYJ3nL4n5d4HYqNV-15" value="" style="endArrow=none;dashed=1;html=1;rounded=0;entryX=0.5;entryY=1;entryDx=0;entryDy=0;exitX=0.5;exitY=0;exitDx=0;exitDy=0;" edge="1" parent="1" source="7m76SYJ3nL4n5d4HYqNV-3" target="7m76SYJ3nL4n5d4HYqNV-2">
          <mxGeometry width="50" height="50" relative="1" as="geometry">
            <mxPoint x="390" y="260" as="sourcePoint" />
            <mxPoint x="440" y="210" as="targetPoint" />
          </mxGeometry>
        </mxCell>
        <mxCell id="7m76SYJ3nL4n5d4HYqNV-16" value="" style="endArrow=none;dashed=1;html=1;rounded=0;exitX=0.5;exitY=0;exitDx=0;exitDy=0;" edge="1" parent="1" source="7m76SYJ3nL4n5d4HYqNV-4">
          <mxGeometry width="50" height="50" relative="1" as="geometry">
            <mxPoint x="399.5" y="410" as="sourcePoint" />
            <mxPoint x="400" y="490" as="targetPoint" />
          </mxGeometry>
        </mxCell>
        <mxCell id="7m76SYJ3nL4n5d4HYqNV-17" value="" style="endArrow=none;dashed=1;html=1;rounded=0;" edge="1" parent="1">
          <mxGeometry width="50" height="50" relative="1" as="geometry">
            <mxPoint x="400" y="740" as="sourcePoint" />
            <mxPoint x="400" y="740" as="targetPoint" />
            <Array as="points">
              <mxPoint x="400" y="790" />
            </Array>
          </mxGeometry>
        </mxCell>
        <mxCell id="7m76SYJ3nL4n5d4HYqNV-19" value="" style="endArrow=none;dashed=1;html=1;rounded=0;exitX=0.5;exitY=0;exitDx=0;exitDy=0;" edge="1" parent="1">
          <mxGeometry width="50" height="50" relative="1" as="geometry">
            <mxPoint x="399" y="660" as="sourcePoint" />
            <mxPoint x="400" y="610" as="targetPoint" />
          </mxGeometry>
        </mxCell>
        <mxCell id="7m76SYJ3nL4n5d4HYqNV-20" value="" style="endArrow=none;dashed=1;html=1;rounded=0;exitX=0.5;exitY=0;exitDx=0;exitDy=0;" edge="1" parent="1">
          <mxGeometry width="50" height="50" relative="1" as="geometry">
            <mxPoint x="399" y="920" as="sourcePoint" />
            <mxPoint x="400" y="870" as="targetPoint" />
          </mxGeometry>
        </mxCell>
        <mxCell id="7m76SYJ3nL4n5d4HYqNV-21" value="" style="endArrow=none;dashed=1;html=1;rounded=0;exitX=0.5;exitY=0;exitDx=0;exitDy=0;" edge="1" parent="1" source="7m76SYJ3nL4n5d4HYqNV-9">
          <mxGeometry width="50" height="50" relative="1" as="geometry">
            <mxPoint x="400" y="1040" as="sourcePoint" />
            <mxPoint x="400" y="1000" as="targetPoint" />
          </mxGeometry>
        </mxCell>
        <mxCell id="7m76SYJ3nL4n5d4HYqNV-22" value="" style="endArrow=none;dashed=1;html=1;rounded=0;exitX=0.5;exitY=0;exitDx=0;exitDy=0;" edge="1" parent="1">
          <mxGeometry width="50" height="50" relative="1" as="geometry">
            <mxPoint x="399.5" y="1170" as="sourcePoint" />
            <mxPoint x="400" y="1130" as="targetPoint" />
          </mxGeometry>
        </mxCell>
        <mxCell id="7m76SYJ3nL4n5d4HYqNV-23" value="&lt;b&gt;DIAGRAMA DE USO&lt;/b&gt;" style="text;html=1;align=center;verticalAlign=middle;resizable=0;points=[];autosize=1;strokeColor=none;fillColor=none;" vertex="1" parent="1">
          <mxGeometry x="330" y="250" width="140" height="30" as="geometry" />
        </mxCell>
      </root>
    </mxGraphModel>
  </diagram>
</mxfile>
